<svg version="1.2" xmlns="http://www.w3.org/2000/svg" viewBox="0 0 128 128" width="128" height="128">
	<style>
		.s0 { fill: #ffffff } 
	</style>
	<g>
		<path class="s0" d="m60.27 0.29c-4.66 0.37-11.32 1.72-15.64 3.16-4.3 1.44-8.97 3.56-12.6 5.69-9.97 5.9-17.74 13.7-23.62 23.69-2.55 4.37-5.5 11.78-6.68 16.77-0.5 2.17-1.16 6.21-1.4 8.59-0.33 3.14-0.28 9.73 0.09 12.75 1.11 9.22 4.12 18.16 8.74 25.84 5.32 8.88 12.24 15.91 21.11 21.42 5.89 3.68 10.87 5.83 17.51 7.55 5.02 1.31 8.14 1.82 12.98 2.11 9.24 0.56 18.99-1.16 27.83-4.91 8.02-3.4 14.87-8.11 20.85-14.34 7.41-7.74 11.87-15.45 14.15-24.54 0.68-2.73 1.36-6.77 1.2-7.25-0.07-0.19-0.26-0.42-0.47-0.52-0.69-0.37-1.11-0.06-2.49 1.97-1.93 2.8-2.54 3.59-4.24 5.57-2.98 3.45-6.54 6.59-10.37 9.16-1.68 1.13-1.85 1.21-2.01 0.92-0.49-0.85-1.98-2.22-2.88-2.65l-0.99-0.46 0.97-0.72c2.41-1.81 5.1-5.12 6.2-7.64l0.5-1.14 2.34 0.1c1.28 0.06 3.03 0.23 3.88 0.37q2.63 0.47 2.62-0.07c0-0.7-3.34-1.67-6.36-1.86l-1.86-0.12 0.23-0.54c0.12-0.29 0.36-1.09 0.52-1.78l0.31-1.25 1.84-0.44c1.02-0.24 2.95-0.6 4.28-0.79 2.71-0.4 3.04-0.47 3.04-0.71 0-0.65-3.87-0.75-6.84-0.16-1.02 0.21-1.9 0.33-1.94 0.29-0.03-0.03 0.02-1.04 0.12-2.22 0.54-6-0.76-12.71-3.43-17.67-1.01-1.87-2.2-3.64-3.5-5.19l-1.01-1.21-0.09-2.65c-0.07-1.95-0.22-3.19-0.53-4.65-0.92-4.16-2.83-8.27-4.15-8.95-1.18-0.61-3.88-0.1-6.82 1.3-2.86 1.37-4.35 2.41-7.54 5.24l-1.3 1.14-1.48-0.22c-2.29-0.37-6.74-0.49-9.29-0.26-4.22 0.38-9.85 1.73-13.22 3.15-0.92 0.39-1.8 0.75-1.94 0.78-0.14 0.06-0.89-0.27-1.65-0.71-3.78-2.15-10.21-3.92-13.46-3.69-2.37 0.17-3.28 1.18-3.99 4.47-0.33 1.5-0.4 2.36-0.4 4.86 0 3.17 0.14 4.39 0.89 7.48l0.43 1.85-0.87 2.05c-1.45 3.4-2.09 6.52-2.13 10.35l-0.02 2.12-0.59-1.74c-0.67-1.94-1.5-5.86-1.83-8.49-0.32-2.62-0.26-9.09 0.1-11.71 1.23-9.11 4.93-17.68 10.75-24.98 2.22-2.79 6.51-6.88 9.73-9.29 3.23-2.43 8.73-5.49 12.32-6.84 5.95-2.25 9.33-3.09 15.17-3.73 2.03-0.21 2.38-0.29 2.66-0.62 0.4-0.5 0.31-0.99-0.23-1.39-1-0.74-7.82-2.18-12.21-2.58-1.82-0.16-9.42-0.19-11.29-0.06zm9.75 1.98c2.27 0.18 6.8 0.78 7.42 0.97q0.33 0.11-1.04 0.35c-1.79 0.3-7.87 2.01-9.78 2.74-7.81 3-14.59 7.35-20.14 12.92-4.23 4.23-6.95 7.89-9.66 13.01-3.94 7.46-5.83 15.12-5.83 23.76 0 5.81 0.72 10.18 2.55 15.7 1.2 3.52 2.1 5.74 3.14 7.54 0.35 0.63 0.92 1.82 1.25 2.69 0.35 0.85 1.01 2.33 1.48 3.24l0.85 1.67 2.2-0.07c2.15-0.09 2.95 0.05 2.55 0.42-0.21 0.2-2.2 0.55-3.09 0.55-0.35 0-0.66 0.07-0.71 0.16-0.12 0.19 1.18 1.94 2.01 2.74l0.57 0.54 1.48-0.51c0.81-0.27 1.63-0.48 1.82-0.45 0.73 0.09 0.31 0.57-1.04 1.23l-1.39 0.66 0.96 0.89c1.97 1.82 5.23 3.67 8.15 4.61 1 0.33 1.89 0.66 1.97 0.73 0.09 0.07 0.37 0.69 0.65 1.35 1.92 4.79 5.7 7.42 12.66 8.85 5.08 1.04 7.87 0.81 9.33-0.77 0.38-0.41 0.74-0.97 0.8-1.24 0.07-0.26 0.13-0.58 0.17-0.66 0.05-0.23-0.19-1.79-0.35-2.19-0.08-0.24 0.16-0.29 1.95-0.4 1.12-0.07 2.2-0.15 2.39-0.21 0.33-0.08 0.35 0 0.36 1.53 0 1.37 0.07 1.73 0.45 2.48 0.87 1.68 1.93 2.41 3.52 2.41 1.95 0.02 3.82-1.44 6.16-4.75 2.38-3.37 3.9-4.67 7.17-6.09 7.18-3.16 15.15-9.42 19.72-15.49 0.69-0.92 1.28-1.65 1.31-1.63 0.09 0.11-0.81 3.37-1.59 5.78-1.39 4.25-4.74 10.58-7.48 14.2-3.26 4.29-7.39 8.43-11.76 11.83-7.54 5.86-17.5 10.2-26.79 11.67-4.53 0.72-5.48 0.78-10.32 0.8-6.59 0-10.38-0.47-15.93-1.99-8.53-2.34-15.54-5.9-22.73-11.5-3.78-2.95-8.81-8.21-11.62-12.14-4.5-6.32-8.1-14.14-9.82-21.35-1.37-5.76-1.82-9.39-1.8-14.76 0.01-9.07 1.7-16.79 5.42-25.07 2.52-5.55 6.32-11.41 10.13-15.62 7.72-8.52 16.77-14.49 27.27-17.95 4.56-1.51 8.41-2.36 12.75-2.83 4.99-0.56 8.56-0.66 12.26-0.35zm28.1 32.05c1.8 3.02 2.93 7.38 3.12 11.99l0.1 2.5 1.11 1.28c4.39 5.03 6.92 12.26 6.8 19.46l-0.03 1.47-0.13-1.9c-0.5-7.22-3.07-13.55-7.51-18.41-1.35-1.47-1.64-2.15-1.42-3.19 0.16-0.69-0.21-4.25-0.64-6.24-0.4-1.91-1.51-5-2.13-5.93-0.33-0.51-0.56-0.66-0.94-0.66-1.18 0-4.56 1.59-7.13 3.36-0.71 0.49-2.17 1.74-3.26 2.78-2.25 2.15-1.54 1.96-5.41 1.4-2.74-0.4-8.86-0.27-11.9 0.25-3.99 0.67-8.1 1.94-10.77 3.29-0.59 0.3-1.2 0.54-1.35 0.54-0.16 0-1.3-0.54-2.57-1.2-3.83-1.99-7.59-3.19-10.79-3.41-1.23-0.09-1.61-0.07-1.77 0.12-0.62 0.76-1.19 4.89-1.02 7.35 0.12 1.77 0.64 4.63 1.15 6.42 0.45 1.59 0.43 1.82-0.18 3.03-1.44 2.83-2.56 6.33-2.96 9.18-0.33 2.29-0.11 7.27 0.43 9.64 0.64 2.92 0.66 3.02 0.28 2-0.54-1.43-1.18-4.84-1.37-7.25-0.37-4.55 0.6-9.96 2.43-13.6 0.57-1.15 0.6-1.46 0.22-2.66-0.69-2.27-0.97-4.19-1.06-7.19-0.07-2.57-0.03-3.32 0.28-4.81 0.19-0.97 0.5-2.11 0.69-2.55 0.32-0.71 0.4-0.78 1.15-0.88 1.11-0.17 2.77 0.02 5.32 0.61 2.67 0.6 4.79 1.42 7.58 2.87l2.15 1.15 0.98-0.4c6.9-2.71 10.49-3.57 16.14-3.88 2.29-0.13 5.99 0.1 8.4 0.53 0.76 0.12 1.4 0.23 1.42 0.19 0.03-0.01 0.73-0.69 1.58-1.5 0.85-0.82 2.24-2 3.09-2.64 2.79-2.1 7.44-4.22 8.93-4.08 0.33 0.02 0.57 0.28 0.99 0.97zm-4.53 27.7c2.48 0.71 4.08 1.65 5.9 3.45 1.28 1.27 1.7 1.84 2.29 3.04 2.04 4.16 2.25 10.61 0.46 14.64-1.57 3.55-5.18 7.07-8.37 8.15-1.23 0.43-2.64 1.09-3.73 1.79-1.27 0.79-6.92 2.32-11.45 3.08-4.91 0.84-11.55 0.91-15.66 0.19-2.01-0.36-4.82-1.09-6-1.56-2.71-1.09-5.99-3.76-7.22-5.86-0.83-1.4-1.68-3.47-2.15-5.17-0.33-1.23-0.4-1.89-0.38-3.99 0.02-2.13 0.09-2.77 0.47-4.21 0.74-2.81 2.03-4.81 4.32-6.71q2.23-1.87 5.08-2.64c1.28-0.35 1.82-0.38 7.37-0.42 8.76-0.05 10.48-0.31 17-2.49 2.24-0.75 4.63-1.44 5.29-1.55 0.67-0.1 1.4-0.22 1.65-0.26 1-0.17 3.69 0.09 5.13 0.52zm1.47 31.2c-4.58 2.21-7.58 5.47-8.69 9.47-0.38 1.39-0.46 3.44-0.15 4.01 0.1 0.19 0.14 0.38 0.1 0.43-0.22 0.23-0.71-1.19-0.78-2.28-0.09-1.53 0.24-2.97 1.2-4.93 1.59-3.36 4.56-5.95 7.96-6.94q2.51-0.76 0.36 0.24zm-23.48 6.6c0.75 0.26 1.79 0.69 2.32 0.97 2.61 1.38 4.25 4.16 3.37 5.7-0.24 0.42-0.24 0.4-0.26-0.5 0-0.59-0.14-1.23-0.37-1.7-0.81-1.68-3.99-3.59-7.84-4.68l-1.42-0.4 1.42 0.09c0.89 0.03 1.95 0.24 2.78 0.52z"/>
		<path class="s0" d="m60.96 3.59c-3.62 0.3-9.45 1.32-12.64 2.24-4.87 1.4-11.46 4.25-14.97 6.47-4.99 3.17-7 4.68-10.51 7.94-2.69 2.5-4.56 4.58-6.76 7.48-2.9 3.83-4.13 5.81-6.23 10-5.32 10.64-7.35 22.97-5.69 34.69 0.42 2.92 1.74 8.33 2.78 11.4 2.96 8.69 8.05 16.73 14.67 23.2 5.05 4.93 9.18 7.9 15.18 10.93 8.43 4.27 16.23 6.26 25.65 6.54 10.06 0.29 19.93-1.94 28.96-6.56 3.35-1.71 7.65-4.56 10.84-7.18 1.77-1.45 5.85-5.5 7.27-7.2 3.45-4.11 6.54-9.07 8.55-13.77q1.03-2.42 0.05-1.45c-1.52 1.51-4.99 4.51-6.5 5.65-3.42 2.55-8.6 5.41-12.38 6.82-1.51 0.55-2.94 1.9-4.84 4.56-1.88 2.62-2.81 3.55-4.39 4.33-1.41 0.72-2.5 0.82-3.82 0.37q-2.59-0.88-3.14-4.35l-0.2-1.32-1.03 0.1c-0.57 0.05-1.18 0.11-1.35 0.11-0.26 0-0.31 0.15-0.31 1.05 0.01 1.88-1.18 3.4-3.11 3.99-2.81 0.85-10.07-0.15-13.79-1.89-3.43-1.61-5.77-3.74-7.19-6.55-0.47-0.94-0.63-1.1-1.79-1.7-3-1.58-6.31-3.89-8.69-6-0.64-0.58-1.28-1.05-1.46-1.05-0.52 0-3.93 1.89-5.46 3.02-2.12 1.56-2.58 1.79-2.31 1.08 0.21-0.54 2.83-2.66 4.55-3.68 0.92-0.55 1.85-1.11 2.08-1.23 0.38-0.24 0.38-0.26-1.09-1.94l-1.48-1.72-1.18 0.23c-2.06 0.39-3.64 0.86-8.15 2.42-0.1 0.04-0.21-0.01-0.21-0.14 0-0.29 1.53-1.17 3.04-1.76 0.67-0.28 2.2-0.73 3.41-1.03 1.22-0.31 2.26-0.59 2.31-0.66 0.05-0.05-0.28-0.67-0.76-1.37-2.01-3-4.62-7.84-5.79-10.82-1.55-3.9-2.94-9.82-3.44-14.74-0.28-2.86-0.1-8.66 0.37-11.71 0.86-5.72 2.23-9.96 5.11-15.87 4.04-8.29 10.56-15.68 18.56-20.99 4.82-3.19 8.34-4.97 13.56-6.86 1.18-0.42 2.14-0.82 2.14-0.87 0-0.26-5.99-0.42-8.42-0.21z"/>
		<path class="s0" d="m95.88 75.98c-1.34 1.31-2.15 1.79-3.61 2.16q-2.39 0.62-4.6-0.42c-1.24-0.57-1.8-0.66-2.13-0.33-1.09 1.09 2.2 3.09 5.12 3.09 2.7 0 5.95-1.62 7.06-3.52 0.53-0.91 0.57-1.36 0.14-1.74-0.52-0.47-0.82-0.35-1.98 0.76z"/>
		<path class="s0" d="m64.99 81.08c-1.13 1.29-2.92 2.19-4.61 2.31-1.48 0.1-3.09-0.19-4.22-0.76-1.35-0.7-2.13-0.47-2.01 0.57 0.12 1.11 2.96 2.32 5.51 2.34 3.02 0.04 5.52-1.21 6.98-3.48 0.57-0.91 0.6-1.25 0.17-1.64-0.54-0.5-0.97-0.34-1.82 0.66z"/>
		<path class="s0" d="m75.53 82.49c-1.9 0.69-1.92 1.96-0.05 2.76 1.3 0.53 2.34 0.27 3.37-0.82 0.79-0.83 0.88-1.25 0.34-1.79-0.38-0.38-0.57-0.43-1.7-0.41-0.69 0-1.57 0.12-1.96 0.26z"/>
		<path class="s0" d="m82.16 87.81c-0.49 0.75-1.35 1.51-2.27 2-0.82 0.43-1.04 0.47-2.88 0.47-1.91 0-2.05-0.02-3.11-0.58-1.19-0.6-1.56-0.67-1.89-0.34-0.55 0.55 0.02 1.26 1.58 1.96 2.29 1 4.74 0.97 7.01-0.09 1.85-0.85 3.36-2.67 2.88-3.45-0.3-0.45-1.01-0.43-1.32 0.03z"/>
	</g>
</svg>